<?xml version="1.0" standalone="no"?>
<!DOCTYPE svg PUBLIC "-//W3C//DTD SVG 20010904//EN"
 "http://www.w3.org/TR/2001/REC-SVG-20010904/DTD/svg10.dtd">
<svg version="1.0" xmlns="http://www.w3.org/2000/svg"
 width="925.000000pt" height="925.000000pt" viewBox="0 0 925.000000 925.000000"
 preserveAspectRatio="xMidYMid meet">
<metadata>
Created by potrace 1.14, written by Peter Selinger 2001-2017
</metadata>
<g transform="translate(0.000000,925.000000) scale(0.100000,-0.100000)"
fill="#000000" stroke="none">
<path d="M4377 9244 c-1 -1 -49 -5 -107 -8 -58 -4 -136 -11 -175 -16 -38 -6
-90 -12 -115 -15 -351 -41 -852 -184 -1225 -348 -93 -41 -369 -183 -470 -243
-107 -62 -394 -252 -415 -274 -3 -3 -45 -37 -95 -75 -591 -453 -1106 -1123
-1404 -1824 -114 -268 -222 -608 -270 -851 -6 -30 -14 -66 -16 -80 -16 -80
-43 -250 -51 -320 -3 -30 -7 -66 -10 -80 -25 -158 -25 -804 0 -960 3 -14 7
-50 10 -81 3 -31 10 -87 16 -125 6 -38 13 -82 16 -99 2 -16 7 -41 9 -55 11
-56 15 -76 21 -105 38 -213 162 -611 271 -868 52 -122 194 -407 236 -474 15
-24 27 -45 27 -48 0 -11 145 -234 223 -345 587 -825 1429 -1437 2397 -1741 69
-22 134 -41 145 -44 11 -3 65 -16 120 -30 55 -14 109 -27 120 -29 81 -17 299
-55 340 -60 28 -4 64 -9 80 -11 239 -35 851 -41 1045 -11 14 2 52 7 85 11 111
12 139 17 298 46 310 58 666 164 922 274 365 158 645 316 941 532 128 93 119
86 293 234 389 332 726 736 984 1179 60 103 182 340 221 430 16 36 37 83 47
105 55 125 170 457 194 563 2 9 14 53 25 97 24 91 65 288 75 355 3 25 10 70
15 100 14 86 18 119 25 205 4 44 8 91 11 105 2 14 6 102 9 195 l6 170 -1150 0
c-632 0 -1153 -3 -1157 -7 -4 -4 -7 -360 -7 -790 0 -431 -4 -813 -8 -849 -14
-117 -76 -264 -152 -364 -117 -151 -310 -267 -489 -292 -67 -10 -3269 -10
-3323 -1 -81 15 -97 19 -148 39 -200 78 -349 220 -440 418 -66 145 -62 37 -62
1836 0 897 3 1646 6 1665 49 270 210 480 452 590 57 26 92 37 172 56 17 4 381
9 810 10 429 2 800 4 825 4 l45 0 -1 1148 c-1 631 -2 1150 -3 1155 -1 6 -237
7 -244 1z"/>
<path d="M4550 6073 c1 -907 0 -890 61 -1038 91 -221 290 -394 529 -461 60
-17 129 -19 913 -22 l848 -3 -3 853 c-4 836 -4 854 -25 919 -90 286 -283 475
-563 555 -61 17 -122 19 -913 22 l-847 3 0 -828z"/>
</g>
</svg>
