<?xml version="1.0" encoding="UTF-8"?>
<svg width="284px" height="83px" viewBox="0 0 284 83" version="1.1" xmlns="http://www.w3.org/2000/svg" xmlns:xlink="http://www.w3.org/1999/xlink">
    <title>DSMM website logo dark background</title>
    <g id="DSMM-website-logo-dark-background" stroke="none" stroke-width="1" fill="none" fill-rule="evenodd">
        <g id="DSMM---ALTERNATE-LOGO-REVISION-(RGB)">
            <path d="M41.5,20.7493776 L41.5,0 C18.5809562,0 0,18.5797114 0,41.5 C0,64.4202886 18.5809562,83 41.5,83 C64.4202886,83 83,64.4202886 83,41.5 L76.1461951,41.5 C76.1250337,41.5 76.1051171,41.5 76.0839557,41.5 L62.2506224,41.5 L62.2506224,55.3345781 C62.2506224,59.1386514 59.1386514,62.2506224 55.3345781,62.2506224 L27.6666667,62.2506224 C23.8625934,62.2506224 20.7506224,59.1386514 20.7506224,55.3345781 L20.7506224,27.6666667 C20.7506224,23.8625934 23.8625934,20.7493776 27.6666667,20.7493776 L41.5,20.7493776" id="Fill-1" fill="#0070FE"></path>
            <path d="M41,21 L41,35.0008398 C41,38.8418116 44.1342531,41.984883 47.9714457,42 L62,42 L62,28.0004199 C62,24.1506299 58.8506299,21 55.0008398,21 L41,21 Z" id="Fill-2" fill="#1BADE4"></path>
            <path d="M104.263987,56.4863108 C102.41298,56.4863108 100.906231,55.9291938 99.7437383,54.8162005 C98.5812461,53.7019664 98,52.2465136 98,50.4461198 L98,11.5136892 L119.570966,11.5136892 C123.014787,11.5136892 126.039512,12.1564211 128.645141,13.4418849 C131.249522,14.7261079 133.273905,16.5463545 134.715795,18.9026246 C136.157684,21.2576538 136.878629,23.9774769 136.878629,27.0620937 L136.878629,39.6536833 C136.878629,45.1789442 135.436739,49.3653872 132.551713,52.214253 C129.666687,55.0618779 125.427083,56.4863108 119.829159,56.4863108 L104.263987,56.4863108 Z M119.570966,48.6482076 C122.326272,48.6482076 124.414268,47.8553395 125.834953,46.270844 C127.256885,44.6863486 127.966604,42.3524128 127.966604,39.267796 L127.966604,27.4467402 C127.966604,25.0060961 127.170821,23.0456397 125.57676,21.5678526 C123.983946,20.0913063 121.89595,19.3517924 119.311526,19.3517924 L106.912024,19.3517924 L106.912024,48.6482076 L119.570966,48.6482076 Z M156.899189,57 C152.163156,57 148.459895,55.6835163 145.791901,53.0493081 C143.121411,50.4150999 141.786791,46.7423462 141.786791,42.0310469 L150.570342,42.0310469 C150.570342,44.2582742 151.140363,46.0028322 152.28165,47.2672025 C153.422938,48.530332 155.005774,49.1618968 157.028909,49.1618968 L164.197196,49.1618968 C166.091858,49.1618968 167.631038,48.7660831 168.814734,47.973215 C169.999678,47.1815877 170.590903,46.1207078 170.590903,44.7942977 L170.590903,42.6092574 C170.590903,40.509832 169.041745,39.2045154 165.942181,38.6895854 L154.057819,36.6981091 C150.183676,36.056618 147.245016,34.8245084 145.241837,33.0042619 C143.239906,31.1840153 142.239564,28.8600059 142.239564,26.0334745 L142.239564,22.4351685 C142.239564,20.1657541 142.851993,18.1631106 144.079345,16.4284789 C145.306697,14.6938473 147.050436,13.3550293 149.311807,12.4132657 C151.570684,11.4715022 154.186292,11 157.157382,11 L164.455389,11 C167.25435,11 169.730259,11.5782106 171.883115,12.7346317 C174.035971,13.8910528 175.704871,15.5090497 176.888567,17.5849001 C178.072263,19.663232 178.663488,22.0716155 178.663488,24.812532 L169.881184,24.812532 C169.881184,23.013379 169.384755,21.5678526 168.395638,20.4759528 C167.405275,19.3840531 166.091858,18.8381032 164.455389,18.8381032 L157.157382,18.8381032 C155.350031,18.8381032 153.895669,19.2227497 152.798036,19.9945243 C151.700404,20.7650581 151.151588,21.7936773 151.151588,23.0779004 L151.151588,24.812532 C151.151588,26.9541445 152.637134,28.2817954 155.608224,28.7967254 L167.426479,30.852723 C171.345525,31.5376419 174.33782,32.7474173 176.404611,34.4820489 C178.470155,36.2166806 179.504174,38.4550751 179.504174,41.1959917 L179.504174,45.4357888 C179.504174,47.706444 178.868047,49.7190138 177.598286,51.474739 C176.328525,53.2304642 174.552357,54.5903757 172.271028,55.5544736 C169.988452,56.5185715 167.340415,57 164.326916,57 L156.899189,57 Z M185.704549,11.5136892 L193.647414,11.5136892 L208.436759,38.2404176 L222.904299,11.5136892 L230.848412,11.5136892 L230.848412,56.4863108 L222.12972,56.4863108 L222.12972,28.0249508 L212.635202,45.1144229 C211.989096,46.270844 211.333011,47.0959728 210.665701,47.5885685 C209.998391,48.0811642 209.23379,48.3268416 208.373147,48.3268416 L205.918442,48.3268416 L194.421993,28.0249508 L194.421993,56.4863108 L185.704549,56.4863108 L185.704549,11.5136892 Z M246.800249,11.5136892 L261.589595,38.2404176 L276.057135,11.5136892 L284,11.5136892 L284,56.4863108 L275.281308,56.4863108 L275.281308,28.0249508 L265.786791,45.1144229 C265.141932,46.270844 264.4846,47.0959728 263.817289,47.5885685 C263.149979,48.0811642 262.385378,48.3268416 261.524735,48.3268416 L259.071278,48.3268416 L247.574828,28.0249508 L247.574828,56.4863108 L238.856137,56.4863108 L238.856137,11.5136892 L246.800249,11.5136892 Z" id="Fill-3" fill="#FFFFFF"></path>
            <path d="M98.9654109,71.9105312 C98.6735425,71.9105312 98.4390499,71.8247903 98.2631805,71.6533085 C98.0885584,71.4818267 98,71.2544268 98,70.971109 L98,64.0894688 L101.578506,64.0894688 C102.160996,64.0894688 102.674884,64.1988195 103.12017,64.4187636 C103.565456,64.6387077 103.908464,64.9506058 104.151688,65.3519727 C104.394912,65.7545822 104.5159,66.2193228 104.5159,66.7486797 L104.5159,69.0276483 C104.5159,69.9745263 104.271429,70.6902765 103.78124,71.1786269 C103.292298,71.6669773 102.572605,71.9105312 101.622162,71.9105312 L98.9654109,71.9105312 Z M101.588485,70.7598633 C102.119835,70.7598633 102.522713,70.6082634 102.794625,70.3063063 C103.067783,70.0055918 103.203739,69.564461 103.203739,68.9829139 L103.203739,66.7934141 C103.203739,66.3311587 103.050321,65.9571295 102.744733,65.6700839 C102.437896,65.3830382 102.037513,65.2401367 101.543582,65.2401367 L99.3121605,65.2401367 L99.3121605,70.7598633 L101.588485,70.7598633 Z M110.302128,69.9770115 L107.185124,69.9770115 L106.455453,71.9105312 L105.098389,71.9105312 L108.149287,64.0894688 L108.743002,64.0894688 C109.147128,64.0894688 109.427771,64.2870457 109.58493,64.6821994 L112.387616,71.9105312 L111.020574,71.9105312 L110.302128,69.9770115 Z M107.554325,68.8822616 L109.93168,68.8822616 L108.755475,65.7098478 L108.743002,65.7098478 L107.554325,68.8822616 Z M114.227384,65.2177695 L111.737772,65.2177695 L111.737772,64.0894688 L118.029157,64.0894688 L118.029157,65.2177695 L115.539545,65.2177695 L115.539545,71.9105312 L114.227384,71.9105312 L114.227384,65.2177695 Z M122.580558,69.9770115 L119.463553,69.9770115 L118.73513,71.9105312 L117.378066,71.9105312 L120.427717,64.0894688 L121.022679,64.0894688 C121.425558,64.0894688 121.7062,64.2870457 121.864608,64.6821994 L124.667293,71.9105312 L123.299004,71.9105312 L122.580558,69.9770115 Z M119.834002,68.8822616 L122.211357,68.8822616 L121.033905,65.7098478 L121.022679,65.7098478 L119.834002,68.8822616 Z M130.913775,72 C130.136707,72 129.523035,71.7763281 129.075254,71.3289842 C128.626226,70.8828829 128.401711,70.2715129 128.401711,69.4973594 L129.69142,69.4973594 C129.69142,69.9136378 129.80243,70.2441752 130.021955,70.4852439 C130.242727,70.7275551 130.547069,70.8493321 130.936227,70.8493321 L132.181033,70.8493321 C132.547739,70.8493321 132.84335,70.7685617 133.067864,70.6082634 C133.291131,70.4492078 133.403388,70.2379621 133.403388,69.9770115 L133.403388,69.4849332 C133.403388,69.2848711 133.324808,69.1171171 133.168895,68.9829139 C133.010488,68.8487108 132.787221,68.7555141 132.495353,68.703324 L130.454769,68.3578751 C129.818645,68.2534949 129.329703,68.0447344 128.990437,67.7315937 C128.649924,67.4184529 128.480291,67.0195713 128.480291,66.5361914 L128.480291,65.9210935 C128.480291,65.5420938 128.58257,65.2065859 128.788375,64.9158124 C128.994179,64.6250388 129.283553,64.4001243 129.657743,64.239826 C130.031934,64.0795278 130.464747,64 130.958678,64 L132.225936,64 C132.688684,64 133.099046,64.0956819 133.454527,64.2845604 C133.808761,64.4746816 134.084414,64.7443305 134.278993,65.0947499 C134.472325,65.4451693 134.569614,65.8477788 134.569614,66.3013358 L133.291131,66.3013358 C133.291131,65.9583722 133.192594,65.6812675 132.994273,65.4700217 C132.795952,65.2562908 132.540256,65.1506679 132.225936,65.1506679 L130.958678,65.1506679 C130.606939,65.1506679 130.325049,65.2277105 130.111761,65.3793103 C129.89972,65.5321528 129.792452,65.7396707 129.792452,65.9993787 L129.792452,66.4019882 C129.792452,66.6107487 129.86729,66.7834731 130.016966,66.9214042 C130.166642,67.0593352 130.383672,67.1500466 130.66681,67.194781 L132.708641,67.5526561 C133.351001,67.6644921 133.84618,67.8720099 134.194177,68.1727244 C134.542174,68.4746816 134.715548,68.8598944 134.715548,69.3296055 L134.715548,70.0552967 C134.715548,70.435539 134.610775,70.7722895 134.402476,71.0667909 C134.191682,71.3612923 133.897319,71.5899348 133.515645,71.7539609 C133.135218,71.917987 132.696168,72 132.203484,72 L130.913775,72 Z M137.036775,71.9105312 C136.744907,71.9105312 136.511662,71.8235477 136.335792,71.648338 C136.159923,71.4718857 136.072612,71.2432432 136.072612,70.9611681 L136.072612,64.0894688 L141.825163,64.0894688 L141.825163,65.2177695 L137.384772,65.2177695 L137.384772,67.3401678 L141.489639,67.3401678 L141.489639,68.4796521 L137.384772,68.4796521 L137.384772,70.7822305 L141.825163,70.7822305 L141.825163,71.9105312 L137.036775,71.9105312 Z M145.660613,72 C145.106812,72 144.620365,71.8782231 144.202519,71.6359118 C143.784673,71.3948431 143.45788,71.0518795 143.227129,70.6082634 C142.995132,70.16589 142.879133,69.6539298 142.879133,69.0723827 L142.879133,66.9276173 C142.879133,66.3460702 142.996379,65.83411 143.232119,65.3904939 C143.467859,64.9481205 143.798393,64.6051569 144.22497,64.3628456 C144.651547,64.1217769 145.144231,64 145.705516,64 L146.894194,64 C147.424297,64 147.895777,64.1130786 148.307386,64.3404784 C148.718995,64.5678782 149.03581,64.8884747 149.260324,65.3010252 C149.484838,65.7148183 149.597095,66.1932277 149.597095,66.7374961 L148.307386,66.7374961 C148.307386,66.2603293 148.176419,65.8776017 147.914486,65.5855856 C147.652553,65.2960547 147.31204,65.1506679 146.894194,65.1506679 L145.705516,65.1506679 C145.249004,65.1506679 144.883545,65.3184219 144.606644,65.6539298 C144.329743,65.9894377 144.191293,66.4280833 144.191293,66.9723517 L144.191293,69.0276483 C144.191293,69.5793725 144.326002,70.0205033 144.595419,70.3510407 C144.863588,70.6828208 145.219069,70.8493321 145.660613,70.8493321 L146.871743,70.8493321 C147.305803,70.8493321 147.656295,70.685306 147.925712,70.3572538 C148.195129,70.0292016 148.329837,69.6054675 148.329837,69.0835663 L149.619546,69.0835663 C149.619546,69.6651134 149.504795,70.1745884 149.277786,70.6144765 C149.04953,71.0543647 148.727726,71.3948431 148.312375,71.6359118 C147.898271,71.8782231 147.416813,72 146.871743,72 L145.660613,72 Z M153.487426,72 C152.964807,72 152.500811,71.8856788 152.097933,71.6595216 C151.693808,71.4321218 151.381983,71.1115253 151.16121,70.6977322 C150.940438,70.2851817 150.830676,69.8055297 150.830676,69.2625039 L150.830676,64.0894688 L152.142836,64.0894688 L152.142836,69.2401367 C152.142836,69.7247592 152.266319,70.1136999 152.513284,70.4069587 C152.759003,70.7014601 153.084548,70.8493321 153.487426,70.8493321 L154.688577,70.8493321 C155.098939,70.8493321 155.430721,70.7014601 155.681429,70.4069587 C155.930889,70.1136999 156.056866,69.7247592 156.056866,69.2401367 L156.056866,64.0894688 L157.369027,64.0894688 L157.369027,69.2625039 C157.369027,69.8055297 157.25677,70.2851817 157.032255,70.6977322 C156.807741,71.1115253 156.493421,71.4321218 156.090543,71.6595216 C155.686418,71.8856788 155.219927,72 154.688577,72 L153.487426,72 Z M159.005485,64.0894688 L163.054224,64.0894688 C163.696584,64.0894688 164.216708,64.2646785 164.61335,64.6150979 C165.008745,64.9642746 165.207065,65.42653 165.207065,65.9993787 L165.207065,66.7934141 C165.207065,67.1811121 165.089819,67.5215906 164.854079,67.8148493 C164.618339,68.1093507 164.291547,68.3268096 163.872453,68.4697111 L163.872453,68.4908357 C164.111935,68.6324946 164.30402,68.8139174 164.449954,69.0338614 C164.595888,69.2525629 164.720618,69.538366 164.825391,69.8875427 L165.454031,71.9105312 L164.096968,71.9105312 L163.492027,69.9770115 C163.39349,69.6427462 163.245061,69.3855235 163.042998,69.2065859 C162.840936,69.0276483 162.605196,68.9381796 162.335779,68.9381796 L160.317646,68.9381796 L160.317646,71.9105312 L159.005485,71.9105312 L159.005485,64.0894688 Z M162.762356,67.8098788 C163.106611,67.8098788 163.381017,67.7166822 163.586822,67.5302889 C163.792626,67.3451382 163.894905,67.102827 163.894905,66.8045977 L163.894905,66.0329295 C163.894905,65.7955887 163.816325,65.6017397 163.659165,65.452625 C163.503252,65.3035104 163.293706,65.2289531 163.031773,65.2289531 L160.317646,65.2289531 L160.317646,67.8098788 L162.762356,67.8098788 Z M166.777417,71.9105312 L168.089578,71.9105312 L168.089578,64.0894688 L166.777417,64.0894688 L166.777417,71.9105312 Z M171.812771,65.2177695 L169.323158,65.2177695 L169.323158,64.0894688 L175.614544,64.0894688 L175.614544,65.2177695 L173.124931,65.2177695 L173.124931,71.9105312 L171.812771,71.9105312 L171.812771,65.2177695 Z M178.922386,68.8822616 L176.017422,64.0894688 L177.44184,64.0894688 L179.572229,67.6868593 L181.702619,64.0894688 L183.127037,64.0894688 L180.223321,68.8822616 L180.223321,71.9105312 L178.922386,71.9105312 L178.922386,68.8822616 Z M187.064766,64.0894688 L188.253443,64.0894688 L190.900216,68.9158124 L193.478387,64.0894688 L194.667065,64.0894688 L194.667065,71.9105312 L193.378603,71.9105312 L193.378603,66.5138242 L191.527608,69.9322771 C191.422835,70.1112147 191.321804,70.2404473 191.224514,70.3187325 C191.127225,70.3957751 191.019957,70.435539 190.900216,70.435539 L190.529768,70.435539 L188.342002,66.5138242 L188.342002,71.9105312 L187.064766,71.9105312 L187.064766,64.0894688 Z M200.902322,69.9770115 L197.785317,69.9770115 L197.055646,71.9105312 L195.698582,71.9105312 L198.74948,64.0894688 L199.343196,64.0894688 C199.747321,64.0894688 200.027964,64.2870457 200.185124,64.6821994 L202.989056,71.9105312 L201.620767,71.9105312 L200.902322,69.9770115 Z M198.154518,68.8822616 L200.531873,68.8822616 L199.355669,65.7098478 L199.343196,65.7098478 L198.154518,68.8822616 Z M204.827577,65.2177695 L202.337965,65.2177695 L202.337965,64.0894688 L208.62935,64.0894688 L208.62935,65.2177695 L206.139738,65.2177695 L206.139738,71.9105312 L204.827577,71.9105312 L204.827577,65.2177695 Z M212.362522,72 C211.839903,72 211.375907,71.8856788 210.973029,71.6595216 C210.568903,71.4321218 210.255831,71.1115253 210.036306,70.6977322 C209.815534,70.2851817 209.705771,69.8055297 209.705771,69.2625039 L209.705771,64.0894688 L211.017932,64.0894688 L211.017932,69.2401367 C211.017932,69.7247592 211.140167,70.1136999 211.387133,70.4069587 C211.634098,70.7014601 211.959644,70.8493321 212.362522,70.8493321 L213.562425,70.8493321 C213.974035,70.8493321 214.305817,70.7014601 214.555277,70.4069587 C214.805984,70.1136999 214.930714,69.7247592 214.930714,69.2401367 L214.930714,64.0894688 L216.242875,64.0894688 L216.242875,69.2625039 C216.242875,69.8055297 216.130618,70.2851817 215.907351,70.6977322 C215.682837,71.1115253 215.368517,71.4321218 214.964392,71.6595216 C214.560266,71.8856788 214.093776,72 213.562425,72 L212.362522,72 Z M217.880581,64.0894688 L221.92932,64.0894688 C222.57168,64.0894688 223.091804,64.2646785 223.487198,64.6150979 C223.88384,64.9642746 224.082161,65.42653 224.082161,65.9993787 L224.082161,66.7934141 C224.082161,67.1811121 223.963667,67.5215906 223.729175,67.8148493 C223.493435,68.1093507 223.165395,68.3268096 222.747549,68.4697111 L222.747549,68.4908357 C222.987031,68.6324946 223.179115,68.8139174 223.325049,69.0338614 C223.470983,69.2525629 223.595714,69.538366 223.700487,69.8875427 L224.327879,71.9105312 L222.972063,71.9105312 L222.365875,69.9770115 C222.268585,69.6427462 222.120157,69.3855235 221.918094,69.2065859 C221.716031,69.0276483 221.480291,68.9381796 221.210874,68.9381796 L219.192742,68.9381796 L219.192742,71.9105312 L217.880581,71.9105312 L217.880581,64.0894688 Z M221.637451,67.8098788 C221.981706,67.8098788 222.256112,67.7166822 222.461917,67.5302889 C222.667722,67.3451382 222.77,67.102827 222.77,66.8045977 L222.77,66.0329295 C222.77,65.7955887 222.69142,65.6017397 222.534261,65.452625 C222.377101,65.3035104 222.167554,65.2289531 221.905621,65.2289531 L219.192742,65.2289531 L219.192742,67.8098788 L221.637451,67.8098788 Z M225.652513,71.9105312 L226.964673,71.9105312 L226.964673,64.0894688 L225.652513,64.0894688 L225.652513,71.9105312 Z M230.687866,65.2177695 L228.197006,65.2177695 L228.197006,64.0894688 L234.489639,64.0894688 L234.489639,65.2177695 L232.000027,65.2177695 L232.000027,71.9105312 L230.687866,71.9105312 L230.687866,65.2177695 Z M237.796234,68.8822616 L234.892518,64.0894688 L236.316935,64.0894688 L238.447325,67.6868593 L240.577715,64.0894688 L242.002132,64.0894688 L239.097169,68.8822616 L239.097169,71.9105312 L237.796234,71.9105312 L237.796234,68.8822616 Z M245.938614,64.0894688 L247.127292,64.0894688 L249.774064,68.9158124 L252.353482,64.0894688 L253.54216,64.0894688 L253.54216,71.9105312 L252.252451,71.9105312 L252.252451,66.5138242 L250.402704,69.9322771 C250.297931,70.1112147 250.196899,70.2404473 250.09961,70.3187325 C250.00232,70.3957751 249.893805,70.435539 249.774064,70.435539 L249.404863,70.435539 L247.217097,66.5138242 L247.217097,71.9105312 L245.938614,71.9105312 L245.938614,64.0894688 Z M257.870294,72 C257.302772,72 256.802605,71.8782231 256.368544,71.6359118 C255.934483,71.3948431 255.597712,71.0518795 255.35823,70.6082634 C255.119996,70.16589 255.000255,69.6539298 255.000255,69.0723827 L255.000255,66.9276173 C255.000255,66.3460702 255.119996,65.83411 255.35823,65.3904939 C255.597712,64.9481205 255.934483,64.6051569 256.368544,64.3628456 C256.802605,64.1217769 257.302772,64 257.870294,64 L259.060219,64 C259.627741,64 260.130403,64.1217769 260.568206,64.3628456 C261.004761,64.6051569 261.344027,64.9481205 261.583509,65.3904939 C261.821743,65.83411 261.941484,66.3460702 261.941484,66.9276173 L261.941484,69.0723827 C261.941484,69.6539298 261.821743,70.16589 261.583509,70.6082634 C261.344027,71.0518795 261.004761,71.3948431 260.568206,71.6359118 C260.130403,71.8782231 259.627741,72 259.060219,72 L257.870294,72 Z M259.060219,70.8493321 C259.522968,70.8493321 259.9009,70.6815781 260.192768,70.3460702 C260.483389,70.0105623 260.629324,69.5719167 260.629324,69.0276483 L260.629324,66.9723517 C260.629324,66.4280833 260.485884,65.9894377 260.197758,65.6539298 C259.909631,65.3184219 259.530452,65.1506679 259.060219,65.1506679 L257.882767,65.1506679 C257.411287,65.1506679 257.032108,65.3184219 256.743981,65.6539298 C256.455855,65.9894377 256.312415,66.4280833 256.312415,66.9723517 L256.312415,69.0276483 C256.312415,69.5719167 256.455855,70.0105623 256.743981,70.3460702 C257.032108,70.6815781 257.411287,70.8493321 257.882767,70.8493321 L259.060219,70.8493321 Z M264.36499,71.9105312 C264.071874,71.9105312 263.838629,71.8247903 263.662759,71.6533085 C263.488137,71.4818267 263.399579,71.2544268 263.399579,70.971109 L263.399579,64.0894688 L266.976838,64.0894688 C267.560575,64.0894688 268.074463,64.1988195 268.519749,64.4187636 C268.963788,64.6387077 269.308043,64.9506058 269.550019,65.3519727 C269.793243,65.7545822 269.915479,66.2193228 269.915479,66.7486797 L269.915479,69.0276483 C269.915479,69.9745263 269.671008,70.6902765 269.180818,71.1786269 C268.690629,71.6669773 267.970937,71.9105312 267.021741,71.9105312 L264.36499,71.9105312 Z M266.988063,70.7598633 C267.519414,70.7598633 267.921045,70.6082634 268.194203,70.3063063 C268.467362,70.0055918 268.603318,69.564461 268.603318,68.9829139 L268.603318,66.7934141 C268.603318,66.3311587 268.4499,65.9571295 268.143064,65.6700839 C267.837475,65.3830382 267.437092,65.2401367 266.943161,65.2401367 L264.711739,65.2401367 L264.711739,70.7598633 L266.988063,70.7598633 Z M272.292834,71.9105312 C272.000966,71.9105312 271.766473,71.8235477 271.590604,71.648338 C271.415982,71.4718857 271.327423,71.2432432 271.327423,70.9611681 L271.327423,64.0894688 L277.081222,64.0894688 L277.081222,65.2177695 L272.639584,65.2177695 L272.639584,67.3401678 L276.744451,67.3401678 L276.744451,68.4796521 L272.639584,68.4796521 L272.639584,70.7822305 L277.081222,70.7822305 L277.081222,71.9105312 L272.292834,71.9105312 Z M279.391223,71.9105312 C279.091871,71.9105312 278.857379,71.8247903 278.684004,71.6533085 C278.513123,71.4818267 278.42706,71.2544268 278.42706,70.971109 L278.42706,64.0894688 L279.737973,64.0894688 L279.737973,70.7710469 L284,70.7710469 L284,71.9105312 L279.391223,71.9105312 L279.391223,71.9105312 Z" id="Fill-4" fill="#FFFFFF"></path>
        </g>
    </g>
</svg>